# xmcd
#
# Track frame offsets: 
#        150
#        24321
#        46647
#        68751
#        86489
#        107871
#        127078
#        147380
#        164473
#        178628
#        208096
#        226411
#        242426
#        259143
#        274579
#        293040
#        312718
#        331979
#
# Disc length: 4761 seconds
#
# Revision: 0
# Processed by: cddbd v1.5.2PL0 Copyright (c) Steve Scherf et al.
# Submitted via: ExactAudioCopy v1.3
#
DISCID=06129712
DTITLE=Various Artist - Akella Presents - vol.168 - Rockin' Blues  CD
DTITLE=2
DYEAR=2018
DGENRE=Blues
TTITLE0=David Lumsden and Friends - You Got to Lose
TTITLE1=Too Slim and The Taildraggers - Daddie's Bones
TTITLE2=Brian Ames With David Danced Collective - Books Of Moses
TTITLE3=Ken Tucker - 9 Cent Bum in a Ten Cent Town
TTITLE4=John Campbelljohn - Snow Blow Boogie Jam
TTITLE5=The Voodoo Hoodoo Blues Club - My Little School Girl
TTITLE6=Jim Allchin - Give It Up
TTITLE7=Neville Jacobs - Wasted
TTITLE8=Wilko Johnson - Beauty
TTITLE9=Reverend Rusty and The Case - When The Sun Goes Down
TTITLE10=Kent Earl Housman - Stumblin
TTITLE11=Paris James - Where The Big Dogs Play
TTITLE12=Billy F Gibbons - Second Line
TTITLE13=Big Boy Bloater and The Limits - Unnaturally Charming
TTITLE14=David Gogo - From a Buick 6
TTITLE15=Blues Traveler - The Touch She Has
TTITLE16=Dominic Schoemaker - That's Cold
TTITLE17=Anthony Gomes - Take Me Back Home
EXTD=
EXTT0=
EXTT1=
EXTT2=
EXTT3=
EXTT4=
EXTT5=
EXTT6=
EXTT7=
EXTT8=
EXTT9=
EXTT10=
EXTT11=
EXTT12=
EXTT13=
EXTT14=
EXTT15=
EXTT16=
EXTT17=
PLAYORDER=
